<?xml version="1.0" encoding="UTF-8"?>
<svg width="36px" height="25px" viewBox="0 0 36 25" version="1.1" xmlns="http://www.w3.org/2000/svg" xmlns:xlink="http://www.w3.org/1999/xlink">
    <!-- Generator: Sketch 50.2 (55047) - http://www.bohemiancoding.com/sketch -->
    <title>Group</title>
    <desc>Created with Sketch.</desc>
    <defs>
        <polygon id="path-1" points="0 -6.66666667e-05 35.0373333 -6.66666667e-05 35.0373333 23.7414333 0 23.7414333"></polygon>
    </defs>
    <g id="Page-1" stroke="none" stroke-width="1" fill="none" fill-rule="evenodd">
        <g id="Desktop-HD" transform="translate(-1720.000000, -731.000000)">
            <g id="Group" transform="translate(1738.500000, 743.833333) rotate(180.000000) translate(-1738.500000, -743.833333) translate(1721.000000, 732.000000)">
                <mask id="mask-2" fill="white">
                    <use xlink:href="#path-1"></use>
                </mask>
                <g id="Clip-2"></g>
                <path d="M33.5374333,10.3707667 L5.12143333,10.3707667 L12.9314333,2.56043333 C13.5171,1.9751 13.5171,1.0251 12.9314333,0.439433333 C12.3461,-0.146566667 11.3954333,-0.146566667 10.8101,0.439433333 L0.439433333,10.8101 C-0.146566667,11.3957667 -0.146566667,12.3457667 0.439433333,12.9314333 L10.8101,23.3021 C11.1027667,23.5951 11.4871,23.7414333 11.8707667,23.7414333 C12.2544333,23.7414333 12.6387667,23.5951 12.9314333,23.3021 C13.5171,22.7164333 13.5171,21.7667667 12.9314333,21.1811 L5.12143333,13.3707667 L33.5374333,13.3707667 C34.3657667,13.3707667 35.0374333,12.6991 35.0374333,11.8707667 C35.0374333,11.0424333 34.3657667,10.3707667 33.5374333,10.3707667" id="Fill-1" fill="#4A4A4A" mask="url(#mask-2)"></path>
            </g>
        </g>
    </g>
</svg>